<svg id="visual" viewBox="0 0 900 600" width="900" height="600" xmlns="http://www.w3.org/2000/svg" xmlns:xlink="http://www.w3.org/1999/xlink" version="1.1"><rect x="0" y="0" width="900" height="600" fill="#f1f1f1"></rect><path d="M323 600L354 575C385 550 447 500 464.8 450C482.7 400 456.3 350 466.3 300C476.3 250 522.7 200 548 150C573.3 100 577.7 50 579.8 25L582 0L900 0L900 25C900 50 900 100 900 150C900 200 900 250 900 300C900 350 900 400 900 450C900 500 900 550 900 575L900 600Z" fill="#070a2c" stroke-linecap="round" stroke-linejoin="miter"></path></svg>